<svg width="39" height="19" viewBox="0 0 39 19" fill="none" xmlns="http://www.w3.org/2000/svg">
<path d="M37.4766 7.92186L5.21338 7.92186L10.5579 2.60324C11.1543 2.00971 11.1565 1.04515 10.563 0.448799C9.96947 -0.147626 9.00483 -0.149835 8.40848 0.44362L0.448225 8.36549C0.447692 8.36595 0.447311 8.36648 0.446854 8.36694C-0.147972 8.96047 -0.149876 9.92815 0.446702 10.5237C0.447235 10.5241 0.447616 10.5247 0.448073 10.5251L8.40833 18.447C9.00461 19.0404 9.96925 19.0383 10.5629 18.4418C11.1564 17.8455 11.1541 16.8809 10.5578 16.2874L5.21338 10.9687L37.4766 10.9687C38.318 10.9687 39 10.2867 39 9.4453C39 8.60391 38.318 7.92186 37.4766 7.92186Z" fill="black"/>
</svg>
