<svg width="20" height="20" viewBox="0 0 20 20" fill="none" xmlns="http://www.w3.org/2000/svg">
<path d="M13.75 0H6.25C2.79875 0 0 2.79875 0 6.25V13.75C0 17.2013 2.79875 20 6.25 20H13.75C17.2013 20 20 17.2013 20 13.75V6.25C20 2.79875 17.2013 0 13.75 0ZM18.125 13.75C18.125 16.1625 16.1625 18.125 13.75 18.125H6.25C3.8375 18.125 1.875 16.1625 1.875 13.75V6.25C1.875 3.8375 3.8375 1.875 6.25 1.875H13.75C16.1625 1.875 18.125 3.8375 18.125 6.25V13.75Z" fill="url(#paint0_linear_101:4)"/>
<path d="M10 5C7.23875 5 5 7.23875 5 10C5 12.7613 7.23875 15 10 15C12.7613 15 15 12.7613 15 10C15 7.23875 12.7613 5 10 5ZM10 13.125C8.27752 13.125 6.875 11.7225 6.875 10C6.875 8.27624 8.27752 6.875 10 6.875C11.7225 6.875 13.125 8.27624 13.125 10C13.125 11.7225 11.7225 13.125 10 13.125Z" fill="url(#paint1_linear_101:4)"/>
<path d="M15.3748 5.29197C15.7427 5.29197 16.0411 4.99368 16.0411 4.62572C16.0411 4.25776 15.7427 3.95947 15.3748 3.95947C15.0068 3.95947 14.7085 4.25776 14.7085 4.62572C14.7085 4.99368 15.0068 5.29197 15.3748 5.29197Z" fill="url(#paint2_linear_101:4)"/>
<defs>
<linearGradient id="paint0_linear_101:4" x1="1.83081" y1="18.1693" x2="18.1692" y2="1.83069" gradientUnits="userSpaceOnUse">
<stop stop-color="#FFC107"/>
<stop offset="0.507" stop-color="#F44336"/>
<stop offset="0.99" stop-color="#9C27B0"/>
</linearGradient>
<linearGradient id="paint1_linear_101:4" x1="6.46456" y1="13.5354" x2="13.5354" y2="6.46456" gradientUnits="userSpaceOnUse">
<stop stop-color="#FFC107"/>
<stop offset="0.507" stop-color="#F44336"/>
<stop offset="0.99" stop-color="#9C27B0"/>
</linearGradient>
<linearGradient id="paint2_linear_101:4" x1="14.9037" y1="5.0969" x2="15.8459" y2="4.15466" gradientUnits="userSpaceOnUse">
<stop stop-color="#FFC107"/>
<stop offset="0.507" stop-color="#F44336"/>
<stop offset="0.99" stop-color="#9C27B0"/>
</linearGradient>
</defs>
</svg>
