<svg width="20" height="20" viewBox="0 0 20 20" fill="none" xmlns="http://www.w3.org/2000/svg">
<g clip-path="url(#clip0_101:8)">
<path d="M5.81472 18.3999V15.2117C4.59511 14.8235 3.52819 14.0445 2.7699 12.9882C2.01161 11.932 1.60171 10.6541 1.6001 9.34118V8.54033C1.60184 6.91233 2.23148 5.35153 3.35087 4.20037C4.47027 3.04921 5.98799 2.40169 7.57106 2.3999H12.4291C14.0122 2.40169 15.5299 3.04921 16.6493 4.20037C17.7687 5.35153 18.3983 6.91233 18.4001 8.54033V9.34342C18.3983 10.9714 17.7687 12.5322 16.6493 13.6833C15.5299 14.8345 14.0122 15.4821 12.4291 15.4838H9.08754L5.81472 18.3999ZM7.56959 2.92401C6.1221 2.92601 4.73449 3.51848 3.7113 4.57142C2.6881 5.62436 2.11291 7.05174 2.11194 8.54033V9.34342C2.11323 10.5754 2.50787 11.7729 3.23521 12.7518C3.96256 13.7307 4.98236 14.4369 6.13791 14.762L6.32656 14.8146V17.2487L8.89674 14.9575H12.4291C13.8765 14.9559 15.2642 14.3639 16.2876 13.3114C17.3111 12.2589 17.8867 10.8319 17.8883 9.34342V8.54033C17.8867 7.05188 17.3111 5.62485 16.2876 4.57235C15.2642 3.51985 13.8765 2.92786 12.4291 2.92627L7.56959 2.92401Z" stroke="#25D366" stroke-width="1.5"/>
</g>
<defs>
<clipPath id="clip0_101:8">
<rect width="20" height="20" fill="white"/>
</clipPath>
</defs>
</svg>
