<svg width="25" height="25" viewBox="0 0 25 25" fill="none" xmlns="http://www.w3.org/2000/svg">
<g clip-path="url(#clip0)">
<path d="M7.26828 22V18.0147C5.74377 17.5295 4.41012 16.5557 3.46225 15.2354C2.51439 13.9151 2.00201 12.3177 2 10.6766V9.67553C2.00218 7.64054 2.78923 5.68954 4.18847 4.25058C5.58772 2.81163 7.48487 2.00224 9.4637 2H15.5363C17.5151 2.00224 19.4123 2.81163 20.8115 4.25058C22.2108 5.68954 22.9978 7.64054 23 9.67553V10.6794C22.9978 12.7144 22.2108 14.6654 20.8115 16.1043C19.4123 17.5433 17.5151 18.3527 15.5363 18.3549H11.3593L7.26828 22ZM9.46187 2.65514C7.6525 2.65763 5.91799 3.39822 4.639 4.7144C3.36 6.03057 2.64101 7.8148 2.6398 9.67553V10.6794C2.64141 12.2194 3.13471 13.7162 4.04389 14.9399C4.95308 16.1635 6.22783 17.0463 7.67227 17.4526L7.90808 17.5184V20.561L11.1208 17.697H15.5363C17.3455 17.695 19.0801 16.955 20.3594 15.6394C21.6387 14.3237 22.3583 12.54 22.3602 10.6794V9.67553C22.3583 7.81497 21.6387 6.03118 20.3594 4.71556C19.0801 3.39994 17.3455 2.65995 15.5363 2.65796L9.46187 2.65514Z" stroke="#25D366" stroke-width="1.5"/>
</g>
<defs>
<clipPath id="clip0">
<rect width="23" height="22" fill="white" transform="translate(1 1)"/>
</clipPath>
</defs>
</svg>
