<svg width="40" height="40" viewBox="0 0 40 40" fill="none" xmlns="http://www.w3.org/2000/svg">
<g clip-path="url(#clip0_102:50)">
<path d="M36.2046 13.9801L33.9413 13.9793C33.6944 13.9793 33.4943 14.1798 33.4942 14.4272L33.4941 14.7436H33.6511C34.673 14.7436 35.0531 14.9125 35.0531 15.8454V17.1714L36.2034 17.1718C36.4503 17.172 36.6504 16.9716 36.6505 16.7242L36.6513 14.4282C36.6513 14.1808 36.4513 13.9802 36.2046 13.9801V13.9801ZM23.8523 17.5448C23.7478 17.4134 23.5504 17.3953 23.3524 17.3953H23.2039C22.7105 17.3953 22.517 17.5477 22.4078 18.0221L21.0369 23.7322C20.8658 24.434 20.6254 24.5622 20.214 24.5622C19.7103 24.5622 19.5086 24.4418 19.3078 23.7295L17.7551 18.0193C17.6266 17.5412 17.437 17.3953 16.9435 17.3953H16.8113C16.6122 17.3953 16.4138 17.4137 16.3119 17.5468C16.21 17.6801 16.2444 17.879 16.297 18.0745L17.8661 23.8341C18.1604 24.9364 18.5103 25.8488 19.8176 25.8488C20.0616 25.8488 20.2873 25.8149 20.4751 25.7514C20.0786 27.001 19.6752 27.5521 18.4858 27.6746C18.2444 27.6947 18.0875 27.7293 18.0001 27.8468C17.9094 27.9686 17.93 28.143 17.9624 28.2988L17.9951 28.4465C18.0661 28.788 18.1871 28.9997 18.5697 28.9997C18.6099 28.9997 18.6531 28.9976 18.6995 28.9937C20.4756 28.8772 21.4273 27.9189 21.9841 25.6864L23.8842 18.0704C23.9293 17.875 23.9565 17.6761 23.8523 17.5448V17.5448ZM14.2949 21.9319V23.0846C14.2949 24.0243 13.9472 24.5683 12.1701 24.5683C10.996 24.5683 10.4252 24.1425 10.4252 23.2667C10.4252 22.3062 10.9978 21.9319 12.4674 21.9319H14.2949ZM12.1701 17.1529C11.2012 17.1529 10.5941 17.2747 10.3638 17.3209C9.95605 17.4096 9.78551 17.5218 9.78551 17.9864V18.1189C9.78551 18.301 9.81244 18.4271 9.87012 18.5158C9.93726 18.6192 10.0455 18.6716 10.1919 18.6716C10.2632 18.6716 10.346 18.6596 10.4447 18.6349C10.6776 18.5765 11.4219 18.4559 12.2362 18.4559C13.6985 18.4559 14.2949 18.8618 14.2949 19.8568V20.7447H12.4508C10.0803 20.7447 8.97616 21.546 8.97616 23.2667C8.97616 24.9356 10.1163 25.8547 12.1866 25.8547C14.6469 25.8547 15.744 25.0158 15.744 23.1342V19.8568C15.744 18.0374 14.575 17.1529 12.1701 17.1529V17.1529ZM7.52288 18.2567C7.52288 19.6269 7.17378 20.3695 5.33199 20.3695H2.4969V16.8332C2.4969 16.3429 2.67887 16.1606 3.16816 16.1606H5.33199C6.71957 16.1606 7.52288 16.5037 7.52288 18.2567V18.2567ZM5.33199 14.7416H2.88725C1.58086 14.7416 0.998291 15.3254 0.998291 16.6347V25.0432C0.998291 25.5489 1.16029 25.7112 1.66508 25.7112H1.83024C2.3349 25.7112 2.4969 25.5489 2.4969 25.0432V21.7718H5.33199C7.84911 21.7718 9.02149 20.6548 9.02149 18.2567C9.02149 15.8585 7.84911 14.7416 5.33199 14.7416V14.7416ZM36.4249 11.6105L35.2833 11.6101C35.1587 11.61 35.0578 11.5088 35.0578 11.384L35.0582 10.2258C35.0584 10.101 35.1594 10 35.2838 10L36.4255 10.0004C36.55 10.0004 36.6509 10.1016 36.6509 10.2263L36.6505 11.3845C36.6504 11.5094 36.5495 11.6105 36.4249 11.6105V11.6105ZM38.6648 13.9816L36.9838 13.9809C36.8006 13.9809 36.652 13.8319 36.6521 13.6482L36.6526 11.9429C36.6528 11.7591 36.8015 11.6102 36.9848 11.6102L38.6656 11.6109C38.849 11.6109 38.9976 11.7599 38.9976 11.9436L38.997 13.649C38.997 13.8327 38.8482 13.9816 38.6648 13.9816V13.9816ZM33.9401 17.1712C33.6932 17.1712 33.4933 16.9707 33.4934 16.7233L33.4941 14.7436H33.3293C32.3074 14.7436 31.9273 14.9127 31.9273 15.8455V18.0283C31.9271 18.0329 31.9266 18.0375 31.9266 18.0421V18.5206C31.9263 18.5372 31.9253 18.5526 31.9253 18.5697V21.6196C31.9253 21.9921 31.8537 22.2887 31.7059 22.5191C31.4272 22.9494 30.8755 23.1449 29.9928 23.1461C29.1106 23.1449 28.559 22.9495 28.2803 22.5196C28.1321 22.2891 28.0604 21.9923 28.0604 21.6196V18.5697C28.0604 18.5526 28.0595 18.5372 28.0592 18.5206V18.0421C28.0592 18.0375 28.0587 18.0329 28.0585 18.0283V15.8455C28.0585 14.9127 27.6784 14.7436 26.6565 14.7436H26.3347C25.3127 14.7436 24.9327 14.9127 24.9327 15.8455V21.6196C24.9327 22.5485 25.1417 23.3349 25.5456 23.9688C26.3257 25.1972 27.8368 25.8515 29.985 25.8515C29.9876 25.8515 29.9902 25.8513 29.9928 25.8513C29.9956 25.8513 29.9981 25.8515 30.0009 25.8515C32.149 25.8515 33.6601 25.1972 34.4402 23.9688C34.8441 23.3349 35.0531 22.5485 35.0531 21.6196V17.1716L33.9401 17.1712" fill="#A6C307"/>
</g>
<defs>
<clipPath id="clip0_102:50">
<rect width="38" height="19" fill="white" transform="translate(1 10)"/>
</clipPath>
</defs>
</svg>
