<svg width="40" height="40" viewBox="0 0 40 40" fill="none" xmlns="http://www.w3.org/2000/svg">
<path d="M15.3306 13.1865H23.673V26.8122H15.3306V13.1865Z" fill="#FF5F00"/>
<path d="M16.1901 20.0007C16.189 18.6887 16.4864 17.3936 17.0598 16.2135C17.6332 15.0334 18.4675 13.9991 19.4996 13.1891C18.2213 12.1845 16.6862 11.5598 15.0696 11.3863C13.4531 11.2129 11.8204 11.4978 10.3581 12.2084C8.8958 12.9191 7.66294 14.0268 6.80041 15.4049C5.93787 16.7831 5.48047 18.3761 5.48047 20.0019C5.48047 21.6277 5.93787 23.2207 6.80041 24.5989C7.66294 25.977 8.8958 27.0847 10.3581 27.7953C11.8204 28.5059 13.4531 28.7908 15.0696 28.6174C16.6862 28.444 18.2213 27.8193 19.4996 26.8147C18.4672 26.0044 17.6327 24.9698 17.0593 23.7892C16.4859 22.6086 16.1887 21.3131 16.1901 20.0006V20.0007Z" fill="#EB001B"/>
<path d="M32.6919 25.3704V25.0912H32.8123V25.0334H32.5259V25.0912H32.639V25.3704L32.6919 25.3704ZM33.248 25.3704V25.0335H33.1613L33.0602 25.2742L32.9591 25.0334H32.8725V25.3704H32.9351V25.1153L33.0289 25.3343H33.0939L33.1878 25.1153V25.3704H33.248Z" fill="#F79E1B"/>
<path d="M33.5199 20.0005C33.5199 21.6264 33.0624 23.2195 32.1997 24.5977C31.337 25.9759 30.1039 27.0836 28.6415 27.7941C27.179 28.5046 25.5461 28.7893 23.9295 28.6157C22.3129 28.442 20.7777 27.817 19.4995 26.8121C20.5312 26.0013 21.3653 24.9668 21.9388 23.7866C22.5123 22.6064 22.8103 21.3114 22.8103 19.9992C22.8103 18.6871 22.5123 17.3921 21.9388 16.2119C21.3653 15.0317 20.5312 13.9972 19.4995 13.1864C20.7777 12.1815 22.3129 11.5565 23.9295 11.3828C25.5461 11.2092 27.179 11.4939 28.6415 12.2044C30.104 12.9149 31.337 14.0226 32.1997 15.4008C33.0624 16.779 33.5199 18.3721 33.5199 19.9981V20.0005Z" fill="#F79E1B"/>
</svg>
