<svg width="40" height="40" viewBox="0 0 40 40" fill="none" xmlns="http://www.w3.org/2000/svg">
<path d="M25.7456 14.0186C23.0501 14.0186 20.6413 15.3774 20.6413 17.8879C20.6413 20.7671 24.9134 20.9659 24.9134 22.4123C24.9134 23.0213 24.1958 23.5665 22.9702 23.5665C21.2308 23.5665 19.9308 22.8047 19.9308 22.8047L19.3746 25.3381C19.3746 25.3381 20.8721 25.9816 22.8604 25.9816C25.8074 25.9816 28.1263 24.556 28.1263 22.0026C28.1263 18.9603 23.8365 18.7673 23.8365 17.4248C23.8365 16.9477 24.4256 16.425 25.6477 16.425C27.0266 16.425 28.1516 16.979 28.1516 16.979L28.696 14.5322C28.696 14.5322 27.4719 14.0186 25.7456 14.0186V14.0186ZM1.0848 14.2032L1.01953 14.5726C1.01953 14.5726 2.15351 14.7744 3.17484 15.1771C4.4899 15.6388 4.58357 15.9076 4.80505 16.7424L7.21847 25.7912H10.4537L15.4377 14.2032H12.21L9.00739 22.0819L7.70056 15.4036C7.58071 14.6392 6.97364 14.2032 6.23055 14.2032H1.0848V14.2032ZM16.7357 14.2032L14.2036 25.7912H17.2815L19.8047 14.2032H16.7357V14.2032ZM33.9025 14.2032C33.1603 14.2032 32.7671 14.5897 32.4785 15.2651L27.9691 25.7912H31.1969L31.8214 24.0368H35.7537L36.1335 25.7912H38.9815L36.4969 14.2032H33.9025V14.2032ZM34.3223 17.3339L35.2791 21.6823H32.7158L34.3223 17.3339V17.3339Z" fill="url(#paint0_linear_102:54)"/>
<defs>
<linearGradient id="paint0_linear_102:54" x1="1.00537" y1="18.1064" x2="38.9839" y2="18.1064" gradientUnits="userSpaceOnUse">
<stop stop-color="#20225F"/>
<stop offset="0.2" stop-color="#1A1F61"/>
<stop offset="0.410233" stop-color="#172272"/>
<stop offset="0.595197" stop-color="#152682"/>
<stop offset="0.802083" stop-color="#12288E"/>
<stop offset="1" stop-color="#0E2C9A"/>
</linearGradient>
</defs>
</svg>
