<svg width="40" height="40" viewBox="0 0 40 40" fill="none" xmlns="http://www.w3.org/2000/svg">
<path fill-rule="evenodd" clip-rule="evenodd" d="M6.35491 15.3017C6.66938 15.2998 7.60398 15.2156 7.99985 16.5517C8.26652 17.4517 8.6913 18.926 9.27421 20.9744H9.5116C10.1367 18.8148 10.5661 17.3405 10.7999 16.5517C11.1999 15.2017 12.1999 15.3017 12.5999 15.3017L15.6859 15.3017V24.9017H12.5405V19.2443H12.3296L10.5762 24.9017H8.20963L6.45621 19.2401H6.24529V24.9017H3.09985V15.3017L6.35491 15.3017ZM20.2027 15.3017V20.9634H20.4537L22.5865 16.3078C23.0006 15.3814 23.883 15.3017 23.883 15.3017H26.9268V24.9017H23.7157V19.2401H23.4648L21.3737 23.8956C20.9597 24.8179 20.0354 24.9017 20.0354 24.9017H16.9916V15.3017H20.2027ZM38.0259 19.8637C37.578 21.133 36.1713 22.042 34.614 22.042H31.2465V24.9017H28.1929V19.8637H38.0259Z" fill="#0F754E"/>
<path fill-rule="evenodd" clip-rule="evenodd" d="M34.7612 15.3018H28.0327C28.1928 17.439 30.0334 19.2687 31.9388 19.2687H38.238C38.6015 17.4924 37.3501 15.3018 34.7612 15.3018Z" fill="url(#paint0_linear_102:42)"/>
<defs>
<linearGradient id="paint0_linear_102:42" x1="38.2998" y1="17.7971" x2="28.0327" y2="17.7971" gradientUnits="userSpaceOnUse">
<stop stop-color="#1F5CD7"/>
<stop offset="1" stop-color="#02AEFF"/>
</linearGradient>
</defs>
</svg>
