<svg width="138" height="51" viewBox="0 0 138 51" fill="none" xmlns="http://www.w3.org/2000/svg">
<path fill-rule="evenodd" clip-rule="evenodd" d="M3.08165 48.8594C2.86773 48.6767 2.54684 48.5397 2.10371 48.4331C1.84395 48.3722 1.6453 48.3113 1.50778 48.2504C1.37026 48.1895 1.27858 48.1285 1.23274 48.0676C1.1869 47.9915 1.15633 47.9154 1.15633 47.8088C1.15633 47.6718 1.21746 47.5499 1.3397 47.4586C1.46194 47.3672 1.61474 47.3215 1.81339 47.3215C2.16483 47.3215 2.53156 47.4586 2.89829 47.7327L3.2803 47.1997C2.86773 46.8648 2.37876 46.6973 1.82867 46.6973C1.43138 46.6973 1.09521 46.8039 0.850728 47.017C0.590963 47.2302 0.468721 47.5043 0.468721 47.8545C0.468721 48.0372 0.499281 48.1895 0.560403 48.3265C0.621524 48.4635 0.713206 48.5701 0.835448 48.6615C0.957691 48.7528 1.09521 48.829 1.24802 48.8899C1.40082 48.9508 1.58418 49.0117 1.81339 49.0574C2.05787 49.1183 2.24124 49.1792 2.37876 49.2401C2.51628 49.301 2.59268 49.3619 2.63852 49.4228C2.68437 49.4837 2.71493 49.575 2.71493 49.6664C2.71493 49.8187 2.6538 49.9557 2.51628 50.0471C2.39404 50.1384 2.21068 50.1841 1.99675 50.1841C1.75227 50.1841 1.53834 50.1384 1.3397 50.0623C1.14105 49.9709 0.942411 49.8491 0.743767 49.6816L0.315918 50.1841C0.789607 50.6104 1.35498 50.8236 1.98147 50.8236C2.40932 50.8236 2.74549 50.717 3.02053 50.5039C3.2803 50.2907 3.41782 50.0014 3.41782 49.636C3.38726 49.2857 3.29558 49.0421 3.08165 48.8594ZM8.4756 48.6462L7.25317 46.7582H6.50444V50.7475H7.19205V47.9002L8.44504 49.773H8.46032L9.72858 47.8849V50.7475H10.4315V46.7582H9.69802L8.4756 48.6462ZM15.1684 46.7277L13.4111 50.7475H14.1293L14.5419 49.7882H16.4366L16.8339 50.7475H17.5827L15.8254 46.7277H15.1684ZM14.8016 49.1639L15.4893 47.5652L16.1769 49.1639H14.8016ZM23.5725 48.8137C23.7406 48.6158 23.8323 48.3569 23.8323 48.0372C23.8323 47.6565 23.6948 47.3368 23.435 47.1084C23.1752 46.88 22.8085 46.7582 22.3348 46.7582H20.547V50.7475H21.2499V49.3619H22.1209L23.1141 50.7475H23.9393L22.8544 49.2401C23.1752 49.1487 23.4045 49.0117 23.5725 48.8137ZM21.2652 48.7376V47.3977H22.289C22.5488 47.3977 22.7627 47.4586 22.9002 47.5652C23.053 47.6718 23.1141 47.8392 23.1141 48.0524C23.1141 48.2656 23.0377 48.4178 22.8849 48.5549C22.7321 48.6767 22.5335 48.7376 22.289 48.7376H21.2652ZM26.6897 47.4129H27.9733V50.7475H28.6762V47.4129H29.9444V46.7582H26.6897V47.4129ZM39.5863 48.4178H37.6763V46.7582H36.9734V50.7475H37.6763V49.0726H39.5863V50.7475H40.2892V46.7582H39.5863V48.4178ZM45.0261 46.7277L43.2688 50.7475H43.987L44.3996 49.7882H46.2943L46.6916 50.7475H47.4404L45.6678 46.7277H45.0261ZM44.6441 49.1639L45.3317 47.5652L46.0193 49.1639H44.6441ZM52.7121 48.6767C53.0941 48.4787 53.2774 48.1894 53.2774 47.7783C53.2774 47.5043 53.1857 47.2911 53.0024 47.1084C52.7732 46.88 52.4217 46.7582 51.948 46.7582H50.145V50.7475H52.0244C52.4829 50.7475 52.8343 50.6561 53.1094 50.4582C53.3691 50.2755 53.5066 50.0014 53.5066 49.6512C53.5066 49.3923 53.4455 49.1792 53.308 49.0269C53.1705 48.8746 52.9718 48.7528 52.7121 48.6767ZM50.8631 47.3825H51.8716C52.1008 47.3825 52.2689 47.4281 52.3912 47.5195C52.5134 47.6109 52.5745 47.7327 52.5745 47.8849C52.5745 48.0676 52.5134 48.2047 52.3759 48.296C52.2384 48.3874 52.055 48.4331 51.8258 48.4331H50.8631V47.3825ZM52.6051 49.9862C52.4676 50.0775 52.2842 50.1232 52.0397 50.1232H50.8784V49.0269H51.9939C52.2689 49.0269 52.4676 49.0726 52.6051 49.1639C52.7426 49.2553 52.819 49.3923 52.819 49.5598C52.8037 49.7578 52.7426 49.8948 52.6051 49.9862ZM56.6391 50.7475H57.342V46.7582H56.6391V50.7475ZM60.3981 47.4129H61.6816V50.7475H62.3845V47.4129H63.6528V46.7582H60.3981V47.4129ZM66.556 50.7475H67.32V50.0166H66.556V50.7475ZM77.0536 48.6767C77.4356 48.4787 77.6189 48.1894 77.6189 47.7783C77.6189 47.5043 77.5273 47.2911 77.3439 47.1084C77.1147 46.88 76.7633 46.7582 76.2896 46.7582H74.4865V50.7475H76.3354C76.7938 50.7475 77.1453 50.6561 77.4203 50.4582C77.6801 50.2755 77.8176 50.0014 77.8176 49.6512C77.8176 49.3923 77.7565 49.1792 77.6189 49.0269C77.4967 48.8746 77.2981 48.7528 77.0536 48.6767ZM75.2047 47.3825H76.2132C76.4424 47.3825 76.6105 47.4281 76.7327 47.5195C76.8549 47.6109 76.9161 47.7327 76.9161 47.8849C76.9161 48.0676 76.8549 48.2047 76.7174 48.296C76.5799 48.3874 76.3965 48.4331 76.1673 48.4331H75.2047V47.3825ZM76.9313 49.9862C76.7938 50.0775 76.6105 50.1232 76.366 50.1232H75.2047V49.0269H76.3201C76.5952 49.0269 76.7938 49.0726 76.9313 49.1639C77.0689 49.2553 77.1453 49.3923 77.1453 49.5598C77.1453 49.7578 77.0689 49.8948 76.9313 49.9862ZM81.6224 49.0574H83.6241V48.4331H81.6224V47.3825H83.8839V46.7582H80.9195V50.7475H83.9144V50.1232H81.6224V49.0574ZM86.6343 47.4129H87.9179V50.7475H88.6208V47.4129H89.889V46.7582H86.6343V47.4129ZM92.5172 47.4129H93.8008V50.7475H94.5037V47.4129H95.7719V46.7582H92.5172V47.4129ZM99.3934 49.0574H101.395V48.4331H99.3934V47.3825H101.655V46.7582H98.6905V50.7475H101.685V50.1232H99.3934V49.0574ZM107.813 48.8137C107.981 48.6158 108.073 48.3569 108.073 48.0372C108.073 47.6565 107.935 47.3368 107.675 47.1084C107.416 46.88 107.049 46.7582 106.575 46.7582H104.787V50.7475H105.49V49.3619H106.361L107.354 50.7475H108.18L107.095 49.2401C107.416 49.1487 107.645 49.0117 107.813 48.8137ZM105.506 48.7376V47.3977H106.529C106.789 47.3977 107.003 47.4586 107.14 47.5652C107.293 47.6718 107.354 47.8392 107.354 48.0524C107.354 48.2656 107.278 48.4178 107.125 48.5549C106.972 48.6767 106.774 48.7376 106.529 48.7376H105.506ZM115.927 46.7582H115.224V50.7475H118.035V50.108H115.927V46.7582ZM121.091 50.7475H121.794V46.7582H121.091V50.7475ZM125.141 50.7475H125.844V49.1183H127.861V48.4788H125.844V47.3977H128.12V46.7582H125.141V50.7475ZM131.895 49.0574H133.896V48.4331H131.895V47.3825H134.156V46.7582H131.176V50.7475H134.171V50.1232H131.879V49.0574H131.895ZM137.182 50.0166V50.7475H137.946V50.0166H137.182Z" fill="white"/>
<path d="M64.5695 0.637436C64.4931 0.637436 64.4473 0.667889 64.3861 0.698341L64.3556 0.713567C64.2792 0.759246 64.1722 0.820152 63.8972 0.835378C63.5763 0.850604 62.4761 0.850604 62.0483 0.850604C61.0398 0.850604 60.3827 0.820152 60.1688 0.804926C60.1229 0.804926 60.0465 0.74402 59.9854 0.698341L59.9701 0.683115C59.9396 0.667888 59.9243 0.637436 59.9243 0.62221C59.909 0.591757 59.8479 0.515625 59.7562 0.515625C59.6187 0.515625 59.4812 0.667889 59.4812 0.7897C59.4812 1.079 59.4201 1.35307 59.3742 1.56624C59.3437 1.70328 59.3284 1.79464 59.3284 1.87077C59.3284 2.03826 59.4048 2.20575 59.5576 2.20575C59.6798 2.20575 59.7715 2.12962 59.8479 1.96213C59.9701 1.71851 60.0618 1.61192 60.0771 1.5967L60.0924 1.58147C60.1688 1.50534 60.2757 1.44443 60.5814 1.44443C60.7036 1.44443 61.269 1.45966 61.4982 1.47488V2.38847C61.4982 2.99752 61.4523 4.64196 61.4371 5.11398C61.4065 5.69258 61.4065 5.73826 60.9481 5.84484C60.8106 5.8753 60.673 5.98188 60.673 6.13415C60.673 6.25596 60.78 6.37777 61.0703 6.37777C61.1009 6.37777 61.1773 6.37777 61.2842 6.36254C61.4676 6.34731 61.7274 6.31686 61.9871 6.31686C62.2316 6.31686 62.5525 6.33209 62.7359 6.34731C62.8276 6.34731 62.8887 6.36254 62.904 6.36254C63.2401 6.36254 63.286 6.21028 63.286 6.11892C63.286 5.95143 63.072 5.86007 62.9498 5.82962C62.522 5.73826 62.522 5.69258 62.4914 5.38805C62.4608 5.09875 62.4608 4.32221 62.4608 3.40863V1.47488C62.6595 1.45966 63.3624 1.45966 63.4999 1.47488C63.9736 1.49011 63.9736 1.52056 64.0041 1.82509C64.0194 1.96213 64.05 2.22097 64.2639 2.22097C64.4167 2.22097 64.5389 2.06871 64.5542 1.93168C64.6001 1.52056 64.6459 1.27694 64.7223 1.03332C64.7682 0.91151 64.7529 0.804926 64.707 0.728794C64.6918 0.667889 64.6306 0.637436 64.5695 0.637436Z" fill="white"/>
<path d="M78.9329 4.9771C78.8871 4.93142 78.8412 4.90097 78.7801 4.90097C78.6273 4.90097 78.5356 5.05324 78.4592 5.2055C78.2606 5.58616 78.0619 5.67751 77.8786 5.72319C77.741 5.75365 77.3437 5.76887 77.1451 5.76887C76.8548 5.76887 76.6103 5.73842 76.4575 5.72319C76.4422 5.70797 76.4269 5.69274 76.4116 5.64706C76.3811 5.54048 76.3352 5.2664 76.3352 5.03801V4.85529C76.3352 4.56599 76.3352 4.0483 76.3505 3.85035C76.5645 3.85035 76.8395 3.85035 77.0687 3.86558C77.4813 3.88081 77.4813 3.88081 77.573 4.17011C77.6035 4.30714 77.7105 4.45941 77.8633 4.45941C77.9244 4.45941 77.9702 4.42895 78.0161 4.3985C78.0925 4.30714 78.1078 4.17011 78.1078 4.07875C78.1078 4.03307 78.1078 3.97216 78.0925 3.92649C78.0925 3.8199 78.0772 3.72854 78.0772 3.59151C78.0772 3.39356 78.0925 3.22607 78.1078 3.02813C78.1078 3.01291 78.123 2.84542 78.0314 2.75406C77.9855 2.70838 77.9397 2.69315 77.8786 2.69315C77.6952 2.69315 77.6188 2.89109 77.5882 2.952C77.466 3.25653 77.466 3.25653 76.7937 3.25653H76.3658C76.3658 2.96723 76.3811 1.71867 76.3964 1.5055C76.3964 1.45982 76.4116 1.42937 76.4116 1.41414C76.7631 1.39891 77.2979 1.41414 77.4813 1.44459C77.6799 1.47504 77.8022 1.52072 77.8938 1.87093C77.955 2.16023 78.1078 2.19068 78.1689 2.19068C78.3217 2.19068 78.4439 2.03842 78.4439 1.82525C78.4439 1.76435 78.4439 1.68821 78.4439 1.59686C78.4439 1.45982 78.4286 1.29233 78.4286 1.06393V1.03348C78.4134 0.972576 78.3675 0.881217 78.3064 0.850765C78.2606 0.835538 78.23 0.820312 78.1842 0.835539C78.0619 0.850765 77.7258 0.850765 77.466 0.850765H76.2741C75.9838 0.850765 75.7546 0.835539 75.5559 0.835539C75.3879 0.835539 75.2198 0.820312 75.0364 0.820312C74.8072 0.820312 74.6544 0.926896 74.6544 1.07916C74.6544 1.2771 74.8683 1.33801 75.0059 1.36846C75.2962 1.42937 75.3267 1.47504 75.342 1.76435C75.3573 1.91661 75.3573 2.03842 75.3573 2.41908C75.3573 2.58657 75.3573 2.81496 75.3573 3.10426C75.3573 4.13965 75.3115 5.08369 75.2962 5.37299C75.2656 5.70797 75.2045 5.73842 74.8225 5.82978C74.7155 5.86023 74.4863 5.92114 74.4863 6.10385C74.4863 6.3627 74.7767 6.3627 74.8836 6.3627C75.0364 6.3627 75.1434 6.34747 75.2656 6.34747C75.4184 6.33225 75.5559 6.33225 75.7852 6.33225C76.8242 6.33225 77.8022 6.37793 78.2147 6.39315C78.3217 6.39315 78.3981 6.39315 78.4134 6.39315C78.5509 6.39315 78.6731 6.24089 78.6731 6.24089C78.7648 6.1343 78.9787 5.41867 78.994 5.31208C79.0246 5.2055 79.0093 5.06846 78.9329 4.9771Z" fill="white"/>
<path d="M72.3625 1.36846C72.6528 1.29233 72.714 1.17052 72.714 1.07916C72.714 0.987802 72.6681 0.835539 72.332 0.835539C72.3014 0.835539 72.225 0.835539 72.1333 0.835539C71.9805 0.835539 71.7666 0.850765 71.5985 0.850765C71.4762 0.850765 71.2623 0.850765 71.079 0.835539C70.9414 0.835539 70.8192 0.835539 70.7734 0.835539C70.4372 0.835539 70.3761 0.972575 70.3761 1.07916C70.3761 1.2162 70.483 1.32278 70.697 1.38369C71.0026 1.45982 71.0026 1.49027 71.0331 1.70344C71.0637 2.00797 71.0637 3.04336 71.0484 3.13472C71.0484 3.16517 71.0484 3.19562 71.0331 3.21085C70.1621 3.21085 69.4134 3.22607 68.8633 3.22607C68.573 3.22607 68.3438 3.22607 68.1757 3.22607V3.21085C68.1604 3.07381 68.1757 2.02319 68.2063 1.76435C68.2215 1.45982 68.2368 1.42937 68.5119 1.36846C68.6188 1.35323 68.8633 1.30756 68.8633 1.06393C68.8633 0.987802 68.8175 0.820312 68.4507 0.820312C68.3743 0.820312 68.2827 0.820312 68.1757 0.820312C68.0382 0.820312 67.8701 0.835539 67.6867 0.835539C67.5798 0.835539 67.4575 0.835539 67.3353 0.835539C67.1978 0.835539 67.0602 0.820312 66.9533 0.820312C66.6018 0.820312 66.5713 1.00303 66.5713 1.06393C66.5713 1.17052 66.6324 1.30756 66.9227 1.36846C67.1825 1.42937 67.1978 1.47504 67.1978 1.68821C67.213 1.96229 67.1978 2.46476 67.1978 2.73883C67.1978 2.83019 67.1978 2.8911 67.1978 2.92155C67.1978 4.06352 67.1519 5.00756 67.1213 5.44912C67.0908 5.67752 67.0908 5.72319 66.7241 5.81455C66.449 5.89068 66.4185 6.04295 66.4185 6.11908C66.4185 6.27134 66.556 6.34747 66.8157 6.34747C66.9685 6.34747 67.1519 6.33225 67.3047 6.33225C67.427 6.33225 67.5339 6.31702 67.6256 6.31702C67.8242 6.31702 68.1146 6.33225 68.2979 6.34747C68.3896 6.34747 68.4507 6.34747 68.466 6.34747C68.6952 6.34747 68.7716 6.28657 68.8022 6.24089C68.8327 6.19521 68.8633 6.14953 68.848 6.08863C68.8327 5.89068 68.6494 5.82978 68.4966 5.79933C68.2368 5.72319 68.1757 5.63184 68.1757 5.31208C68.1757 5.25118 68.1757 5.12937 68.1757 4.99233C68.1757 4.6269 68.1604 4.00262 68.1757 3.85035C68.3591 3.85035 68.9091 3.85035 69.4898 3.85035C69.9788 3.85035 70.5441 3.86558 71.0637 3.86558V3.88081C71.0637 4.29192 71.0484 4.85529 71.0331 5.17505C71.0178 5.70797 70.9873 5.72319 70.6511 5.82978C70.4677 5.87546 70.3608 5.98204 70.3608 6.11908C70.3608 6.22566 70.4219 6.3627 70.7122 6.3627C70.7886 6.3627 70.9873 6.34747 71.1706 6.33225C71.354 6.31702 71.5679 6.3018 71.6596 6.3018C71.7971 6.3018 71.9652 6.31702 72.0875 6.31702C72.1791 6.31702 72.2708 6.33225 72.332 6.33225C72.5764 6.33225 72.714 6.25612 72.714 6.08863C72.714 6.01249 72.6834 5.87546 72.4236 5.7841C72.0875 5.69274 72.0875 5.69274 72.0722 5.47957C72.0722 5.43389 72.0722 5.31208 72.0569 5.14459C72.0416 4.87052 72.0416 4.50509 72.0416 4.29192C72.0416 2.99768 72.0569 2.0841 72.1027 1.65776C72.0722 1.52072 72.0875 1.42937 72.3625 1.36846Z" fill="white"/>
<path d="M137.885 15.4071C137.533 16.5186 137.304 17.6606 137.09 19.5182C137.059 19.8379 136.769 20.2034 136.479 20.2034C136.234 20.2034 136.081 19.9598 135.974 19.0614C135.761 17.2038 135.287 17.0211 133.071 16.9145C132.46 16.884 128.472 16.884 128.044 16.9906C127.861 17.0211 127.723 17.3865 127.723 17.4626V26.2178C127.723 30.3593 127.723 33.77 127.861 35.0795C128.044 36.6935 128.212 37.1198 130.443 37.6223C130.917 37.7289 131.406 38.0182 131.406 38.2618C131.406 38.6577 130.764 38.6881 130.397 38.6881C130.107 38.6881 127.891 38.5054 126.302 38.5054C124.514 38.5054 122.681 38.7491 122.207 38.7491C121.489 38.7491 121.137 38.5359 121.137 38.3227C121.137 38.0791 121.489 37.7898 121.825 37.7137C124.331 37.1351 124.407 36.526 124.514 33.8462C124.591 31.7297 124.759 24.4363 124.759 21.6803V17.4322C124.759 17.1429 124.575 16.9602 124.468 16.9602C123.75 16.8536 120.587 16.7775 120.022 16.7775C118.662 16.7775 117.898 16.9906 117.363 17.5997C117.226 17.7063 116.782 18.2849 116.171 19.4573C115.85 20.2034 115.636 20.1729 115.484 20.1729C115.27 20.1729 115.132 19.7009 115.132 19.3507C115.132 18.6655 115.82 16.7013 115.82 14.6001C115.82 14.3869 116.141 14.0215 116.355 14.0215C116.538 14.0215 116.538 14.2651 116.935 14.6001C117.042 14.7067 117.623 15.2396 118.158 15.2853C119.09 15.3919 121.962 15.4984 126.562 15.4984C128.426 15.4984 133.316 15.468 134.783 15.4223C136.081 15.3462 136.723 15.133 137.227 14.7828C137.472 14.6458 137.579 14.5696 137.732 14.5696C137.915 14.5849 138.068 14.9046 137.885 15.4071ZM106.331 34.5466C106.3 34.8359 105.292 38.0486 105.032 38.3684C104.925 38.5054 104.604 38.7947 104.421 38.7947C104.023 38.7947 98.6141 38.5054 92.7618 38.5054C90.867 38.5054 90.0724 38.6881 88.7125 38.6881C88.0249 38.6881 87.6429 38.612 87.6429 38.2161C87.6429 37.9725 88.0707 37.7898 88.6514 37.6375C90.4392 37.2112 91.1268 36.9523 91.2643 35.0338C91.3713 33.5264 91.5546 29.3087 91.5546 24.8779C91.5546 20.6297 91.5852 19.8684 91.5241 18.833C91.4477 17.2647 91.0962 16.8231 89.5071 16.4729C88.7583 16.2902 88.468 16.1532 88.468 15.8639C88.468 15.5441 88.9723 15.3614 89.4765 15.3614C91.1573 15.3614 92.5631 15.4984 94.9621 15.4984H100.234C101.426 15.4984 103 15.468 103.534 15.3919C103.641 15.3614 103.825 15.605 103.855 15.7877C103.855 17.4322 103.932 18.4676 103.932 19.1832C103.932 19.6857 103.718 20.112 103.397 20.112C103.076 20.112 102.893 19.6095 102.816 19.2593C102.343 17.3713 101.563 17.0058 100.417 16.8231C99.4851 16.6861 96.9027 16.61 95.3136 16.6861C95.2372 16.6861 94.8399 16.8688 94.7788 17.691C94.7024 18.5894 94.5954 25.3042 94.6718 25.8371C94.7024 25.9742 94.7482 26.1873 94.9163 26.1873H97.2542C100.631 26.1873 100.769 26.0503 101.41 24.4058C101.624 23.8729 101.838 23.6598 102.052 23.6598C102.297 23.6598 102.373 24.1622 102.343 24.4515C102.266 25.4565 102.236 26.1721 102.236 27.0248C102.236 27.984 102.312 28.4865 102.343 29.2021C102.373 29.8416 102.205 30.2375 101.945 30.2375C101.701 30.2375 101.441 29.8416 101.334 29.4458C100.83 27.8013 100.692 27.6947 98.4919 27.5881C97.3459 27.512 95.9095 27.512 94.9469 27.512C94.8093 27.512 94.626 27.7556 94.626 27.8318C94.4884 28.5779 94.519 31.9124 94.519 33.4503C94.519 34.4857 94.6565 35.8408 94.8705 36.4194C95.008 36.8458 95.2983 37.1351 95.5581 37.2112C96.1693 37.3178 97.3917 37.4548 98.828 37.4548C99.2559 37.4548 101.441 37.4244 102.236 37.2112C103.382 36.9219 104.36 36.2519 105.215 34.5618C105.613 33.77 105.826 33.5569 106.04 33.5569C106.3 33.5721 106.407 34.1507 106.331 34.5466ZM79.1318 34.2573C78.5511 36.0083 78.3066 36.7544 78.0163 38.1248C77.9857 38.5207 77.2981 38.7338 77.1606 38.7338C76.7327 38.7338 73.4628 38.5207 66.1741 38.5207C63.7292 38.5207 62.0484 38.7034 61.5441 38.7034C60.8565 38.7034 60.5051 38.6272 60.5051 38.3075C60.5051 38.0639 60.7954 37.7746 61.3608 37.668C63.3319 37.2721 63.8362 36.6021 64.0195 35.2013C64.0959 34.303 64.2029 28.6235 64.2029 23.4314C64.2029 22.0001 64.2029 19.5334 64.1723 18.3458C64.1418 17.554 63.9584 16.884 62.2776 16.5643C61.5594 16.4272 61.2691 16.1379 61.2691 15.8791C61.2691 15.6355 61.5594 15.4528 62.3387 15.4528C63.3014 15.4528 63.9584 15.5289 64.9975 15.5289C66.4033 15.5289 68.8328 15.4223 69.7038 15.4223C70.3456 15.4223 70.6053 15.5593 70.6053 15.8182C70.6053 16.0618 70.315 16.2902 69.7802 16.4272C67.7021 16.8993 67.4423 17.2799 67.3812 17.8281C67.1673 19.4421 67.1673 23.0507 67.1673 28.3342C67.1673 31.1207 67.2742 34.5618 67.4118 35.7342C67.4882 36.2367 68.3439 37.0589 68.6342 37.0894C69.5663 37.2264 70.8957 37.2721 72.0723 37.2721C73.0808 37.2721 74.0893 37.2416 74.6241 37.1655C74.9144 37.1351 75.3422 37.1351 76.0604 36.4803C76.5647 35.9779 77.13 35.4449 78.108 34.0898C78.5053 33.4503 78.8261 33.298 79.0095 33.298C79.1776 33.298 79.2846 33.6787 79.1318 34.2573ZM42.566 27.3902C41.9548 25.563 40.0906 20.2034 39.7697 19.7009C39.6627 19.4877 39.5863 19.4573 39.4794 19.7009C38.8376 21.4215 36.9734 26.4309 36.6831 27.5272C36.6525 27.6643 36.7136 27.7709 36.8664 27.7709C38.3028 27.7404 41.2824 27.7709 42.459 27.6643C42.4896 27.6795 42.5966 27.4968 42.566 27.3902ZM51.2452 38.6881C50.0533 38.6881 48.2961 38.5054 46.7222 38.5054C45.5762 38.5054 45.072 38.5816 44.1704 38.5816C43.2689 38.5816 43.055 38.3379 43.055 38.1552C43.055 37.9725 43.2689 37.6832 43.9107 37.5766C45.6373 37.2264 45.4845 36.5108 45.347 35.7495C45.0567 34.2877 44.1551 31.9277 43.33 29.6285C43.2994 29.4914 43.1466 29.2783 42.1076 29.2783C40.1364 29.2783 36.9734 29.3087 36.2247 29.4153C36.0871 29.4153 35.9038 29.598 35.8274 29.7046C34.8953 32.0342 33.9632 35.0643 33.9632 35.9626C33.9632 36.389 34.1007 36.998 35.7204 37.5005C36.3316 37.6832 36.6831 37.8964 36.6831 38.14C36.6831 38.4902 36.1483 38.612 35.6746 38.612C35.0634 38.612 34.1618 38.5054 32.8324 38.5054C31.5031 38.5054 29.6389 38.6881 29.104 38.6881C28.4623 38.6881 28.2789 38.5511 28.2789 38.3379C28.2789 38.1248 28.5234 37.805 29.0735 37.6223C30.8613 37.0132 31.335 36.9067 32.374 34.577C33.1992 32.7499 37.2943 21.9544 38.7918 18.3001C39.0057 17.7976 39.0362 17.5844 39.1126 17.3713C39.1432 17.2647 39.2196 17.0515 39.3571 16.7622L40.2128 15.3309C40.4573 15.0416 40.6101 14.8589 40.7935 14.8589C40.931 14.8589 41.0838 14.996 41.3741 15.7877C41.6645 16.747 42.2757 18.361 42.948 20.2186C44.8122 25.4412 47.5015 32.5215 48.1127 33.9832C49.3046 36.9219 49.87 37.196 51.4897 37.5918C52.0703 37.7746 52.3454 37.9421 52.3454 38.2009C52.3454 38.4597 52.1467 38.6881 51.2452 38.6881ZM23.7559 16.4425C22.1821 16.8384 21.3875 17.691 20.6388 19.2746C18.9885 22.8528 18.087 24.3906 15.9019 29.7807C13.8237 34.8207 13.3501 35.719 12.5249 38.4293C12.3874 38.8252 12.1276 39.2211 11.7762 39.2211C11.5623 39.2211 11.2719 38.9774 11.1955 38.5816C10.9816 37.5462 10.3704 35.3688 9.33134 32.7499C8.10891 29.4914 4.70141 20.8429 4.1666 19.5486C3.44842 17.7672 2.69969 16.8688 1.11054 16.3968C0.682688 16.2598 0.2854 16.1075 0.2854 15.7877C0.2854 15.4984 0.820211 15.3157 1.35502 15.3157C2.0732 15.3157 3.37202 15.4984 5.12926 15.4984C6.38224 15.4984 7.84915 15.4223 8.67429 15.4223C9.14797 15.4223 9.52998 15.605 9.52998 15.8486C9.52998 16.0923 9.34662 16.3816 8.67429 16.4881C6.77953 16.8384 6.84065 17.6301 6.99345 18.2087C7.60466 20.0663 11.4859 30.0853 12.7694 33.161C12.8458 33.2371 13.0139 33.4503 13.1209 33.1914C13.4112 32.4453 17.3229 23.2486 18.9274 19.3812C19.7831 17.3713 18.8204 16.9449 17.2771 16.4881C16.7728 16.3511 16.4825 16.0618 16.4825 15.8486C16.4825 15.605 16.9562 15.4223 17.5216 15.4223C18.3467 15.4223 19.1719 15.4984 20.3943 15.4984C21.4333 15.4984 22.8697 15.3614 23.6184 15.3614C24.1227 15.3614 24.6575 15.4984 24.6575 15.8334C24.7033 16.1227 24.2602 16.3359 23.7559 16.4425Z" fill="white"/>
</svg>
